<svg xmlns="http://www.w3.org/2000/svg" viewBox="0 0 1200 360">
  <defs>
    <linearGradient id="wood" x1="0" x2="1" y1="0" y2="1">
      <stop offset="0" stop-color="#6e5135"/>
      <stop offset="1" stop-color="#4a3422"/>
    </linearGradient>
    <radialGradient id="plate" cx="50%" cy="45%" r="60%">
      <stop offset="0" stop-color="#ffffff"/>
      <stop offset="1" stop-color="#e5e9ee"/>
    </radialGradient>
    <linearGradient id="bowl" x1="0" x2="1" y1="0" y2="1">
      <stop offset="0" stop-color="#23262d"/>
      <stop offset="1" stop-color="#0c0d11"/>
    </linearGradient>
    <linearGradient id="tray" x1="0" x2="1" y1="0" y2="1">
      <stop offset="0" stop-color="#f6eee5"/>
      <stop offset="1" stop-color="#d4c8bc"/>
    </linearGradient>
    <linearGradient id="orange" x1="0" x2="1" y1="0" y2="1">
      <stop offset="0" stop-color="#ffc85b"/>
      <stop offset="1" stop-color="#ff8b35"/>
    </linearGradient>
  </defs>
  <rect width="1200" height="360" fill="url(#wood)"/>
  <g opacity="0.16" fill="#2f1d11">
    <rect x="102" y="-4" width="14" height="368" rx="7"/>
    <rect x="236" y="-4" width="20" height="368" rx="10"/>
    <rect x="418" y="-4" width="12" height="368" rx="6"/>
    <rect x="598" y="-4" width="16" height="368" rx="8"/>
    <rect x="790" y="-4" width="12" height="368" rx="6"/>
    <rect x="974" y="-4" width="18" height="368" rx="9"/>
    <rect x="1112" y="-4" width="12" height="368" rx="6"/>
  </g>

  <ellipse cx="392" cy="188" rx="212" ry="138" fill="rgba(0,0,0,0.14)"/>
  <ellipse cx="380" cy="178" rx="212" ry="136" fill="url(#plate)"/>
  <ellipse cx="380" cy="178" rx="156" ry="102" fill="url(#bowl)"/>

  <g stroke="#eef1ed" stroke-linecap="round" opacity="0.98">
    <path d="M332 116c-18 24-31 49-34 78" stroke-width="8"/>
    <path d="M352 112c-12 26-18 54-16 86" stroke-width="7"/>
    <path d="M377 108c-6 30-4 58 6 88" stroke-width="7"/>
    <path d="M402 112c2 30 10 57 24 84" stroke-width="7"/>
    <path d="M424 120c10 26 24 46 40 64" stroke-width="8"/>
  </g>

  <circle cx="382" cy="188" r="34" fill="#fff4b8"/>
  <circle cx="382" cy="188" r="22" fill="#ffc72f"/>
  <circle cx="314" cy="214" r="16" fill="#6cbf64"/>
  <circle cx="452" cy="150" r="14" fill="#d95a38"/>
  <circle cx="450" cy="222" r="12" fill="#79c870"/>
  <circle cx="292" cy="162" r="12" fill="#d95a38"/>
  <circle cx="424" cy="126" r="10" fill="#79c870"/>

  <g transform="translate(708 58)">
    <rect width="174" height="116" rx="24" fill="url(#tray)"/>
    <rect x="18" y="16" width="64" height="84" rx="18" fill="url(#orange)"/>
    <rect x="94" y="22" width="58" height="24" rx="12" fill="#f8e2a9"/>
    <rect x="96" y="54" width="52" height="20" rx="10" fill="#b6a38d"/>
    <rect x="98" y="82" width="44" height="14" rx="7" fill="#d6cdc2"/>
  </g>

  <g transform="translate(900 76)">
    <rect width="118" height="110" rx="24" fill="url(#tray)"/>
    <rect x="24" y="22" width="70" height="24" rx="12" fill="url(#orange)"/>
    <rect x="24" y="52" width="70" height="24" rx="12" fill="url(#orange)"/>
    <rect x="24" y="82" width="54" height="14" rx="7" fill="#d8d3ca"/>
  </g>

  <g transform="translate(1040 68)">
    <rect width="126" height="118" rx="24" fill="url(#tray)"/>
    <path d="M28 34c18-10 48-8 64 8 17 17 17 44 2 62-16 18-48 22-68 8-18-12-24-40-12-59 4-7 8-12 14-19z" fill="#b88755"/>
    <path d="M46 34c18 8 34 26 42 50" stroke="#8d6842" stroke-width="8" stroke-linecap="round" opacity="0.6"/>
    <path d="M36 48c12 8 24 22 30 40" stroke="#8d6842" stroke-width="6" stroke-linecap="round" opacity="0.5"/>
  </g>

  <g opacity="0.96">
    <ellipse cx="966" cy="28" rx="34" ry="16" fill="#fbfbfa"/>
    <ellipse cx="966" cy="28" rx="18" ry="8" fill="#d6e4f0"/>
    <ellipse cx="1078" cy="22" rx="28" ry="12" fill="#fbfbfa"/>
    <ellipse cx="1078" cy="22" rx="12" ry="6" fill="#efe4d3"/>
  </g>
</svg>
