<svg xmlns="http://www.w3.org/2000/svg" viewBox="0 0 1200 360">
  <defs>
    <linearGradient id="bg" x1="0" x2="1" y1="0" y2="1">
      <stop offset="0" stop-color="#c69a62"/>
      <stop offset="1" stop-color="#8a6038"/>
    </linearGradient>
    <radialGradient id="plate" cx="50%" cy="45%" r="60%">
      <stop offset="0" stop-color="#ffffff"/>
      <stop offset="1" stop-color="#e9ecef"/>
    </radialGradient>
    <linearGradient id="soup" x1="0" x2="1" y1="0" y2="1">
      <stop offset="0" stop-color="#3c3f46"/>
      <stop offset="1" stop-color="#111318"/>
    </linearGradient>
    <linearGradient id="tray" x1="0" x2="1" y1="0" y2="1">
      <stop offset="0" stop-color="#efe7db"/>
      <stop offset="1" stop-color="#cfc4b6"/>
    </linearGradient>
    <linearGradient id="orange" x1="0" x2="1" y1="0" y2="1">
      <stop offset="0" stop-color="#ffcb5a"/>
      <stop offset="1" stop-color="#ff9037"/>
    </linearGradient>
  </defs>
  <rect width="1200" height="360" fill="url(#bg)"/>
  <g opacity="0.14" fill="#5e3f23">
    <rect x="74" y="-6" width="18" height="372" rx="9"/>
    <rect x="196" y="-6" width="12" height="372" rx="6"/>
    <rect x="356" y="-6" width="16" height="372" rx="8"/>
    <rect x="522" y="-6" width="10" height="372" rx="5"/>
    <rect x="734" y="-6" width="16" height="372" rx="8"/>
    <rect x="938" y="-6" width="12" height="372" rx="6"/>
    <rect x="1082" y="-6" width="18" height="372" rx="9"/>
  </g>

  <ellipse cx="370" cy="176" rx="210" ry="140" fill="rgba(0,0,0,0.08)"/>
  <ellipse cx="360" cy="170" rx="210" ry="138" fill="url(#plate)"/>
  <ellipse cx="360" cy="170" rx="154" ry="104" fill="url(#soup)"/>

  <g opacity="0.92">
    <path d="M252 124c38-24 92-34 130-4 20 16 36 46 26 74-13 38-72 66-124 58-30-5-62-22-71-51-10-34 5-59 39-77z" fill="#241f24"/>
    <path d="M254 118c43-22 100-20 128 11 18 20 24 49 13 74-15 34-66 57-115 52-36-4-71-22-82-52-11-30 8-60 56-85z" fill="#1a1519"/>
  </g>

  <g stroke="#f3f4ef" stroke-linecap="round" opacity="0.95">
    <path d="M308 110c-16 22-28 46-30 74" stroke-width="8"/>
    <path d="M326 108c-12 27-18 54-16 84" stroke-width="7"/>
    <path d="M350 112c-6 28-6 54 2 82" stroke-width="7"/>
    <path d="M376 116c0 29 6 55 18 80" stroke-width="7"/>
    <path d="M398 122c8 23 22 45 36 66" stroke-width="8"/>
  </g>

  <circle cx="362" cy="184" r="34" fill="#fff6bf"/>
  <circle cx="362" cy="184" r="22" fill="#ffcc38"/>
  <circle cx="310" cy="218" r="18" fill="#6cbf61"/>
  <circle cx="426" cy="140" r="16" fill="#79c86d"/>
  <circle cx="438" cy="220" r="14" fill="#d95b3a"/>
  <circle cx="273" cy="164" r="14" fill="#d95b3a"/>
  <circle cx="390" cy="112" r="10" fill="#6cbf61"/>
  <circle cx="463" cy="171" r="12" fill="#f2a23d"/>

  <g transform="translate(690 58)">
    <rect width="172" height="118" rx="24" fill="url(#tray)"/>
    <rect x="18" y="18" width="60" height="80" rx="18" fill="url(#orange)"/>
    <rect x="90" y="22" width="24" height="24" rx="10" fill="#f7e3b4"/>
    <rect x="120" y="22" width="34" height="16" rx="8" fill="#f7e3b4"/>
    <rect x="92" y="54" width="54" height="32" rx="16" fill="#a08f7a"/>
    <rect x="92" y="92" width="46" height="10" rx="5" fill="#cec4b9"/>
  </g>

  <g transform="translate(882 78)">
    <rect width="116" height="108" rx="24" fill="url(#tray)"/>
    <rect x="24" y="20" width="68" height="24" rx="12" fill="url(#orange)"/>
    <rect x="24" y="48" width="68" height="24" rx="12" fill="url(#orange)"/>
    <rect x="24" y="76" width="56" height="14" rx="7" fill="#d8d3ca"/>
  </g>

  <g transform="translate(1018 72)">
    <rect width="132" height="116" rx="24" fill="url(#tray)"/>
    <path d="M28 30c16-8 44-8 56 4 14 13 16 36 4 52-14 19-46 26-66 14-18-11-24-38-13-56 4-6 10-10 19-14z" fill="#b78858"/>
    <path d="M46 30c18 8 36 26 44 50" stroke="#8d6842" stroke-width="8" stroke-linecap="round" opacity="0.65"/>
    <path d="M36 44c14 6 28 20 35 40" stroke="#8d6842" stroke-width="6" stroke-linecap="round" opacity="0.55"/>
  </g>

  <g transform="translate(936 20)" opacity="0.95">
    <ellipse cx="44" cy="26" rx="34" ry="20" fill="#f8faf9"/>
    <ellipse cx="44" cy="26" rx="20" ry="10" fill="#b4d6f0"/>
    <ellipse cx="134" cy="18" rx="28" ry="14" fill="#f8faf9"/>
    <ellipse cx="134" cy="18" rx="14" ry="7" fill="#e0d4c7"/>
  </g>
</svg>
