<svg xmlns="http://www.w3.org/2000/svg" viewBox="0 0 240 240" fill="none">
  <defs>
    <linearGradient id="bg" x1="28" y1="24" x2="212" y2="220" gradientUnits="userSpaceOnUse">
      <stop offset="0" stop-color="#FFF3DF"/>
      <stop offset="1" stop-color="#F6DDC0"/>
    </linearGradient>
    <linearGradient id="panel" x1="40" y1="44" x2="200" y2="196" gradientUnits="userSpaceOnUse">
      <stop offset="0" stop-color="#FFFDF9"/>
      <stop offset="1" stop-color="#FFF2E1"/>
    </linearGradient>
    <linearGradient id="jar" x1="0" y1="0" x2="1" y2="1">
      <stop offset="0" stop-color="#F58E63"/>
      <stop offset="1" stop-color="#D45C42"/>
    </linearGradient>
    <linearGradient id="bottle" x1="0" y1="0" x2="1" y2="1">
      <stop offset="0" stop-color="#90C47E"/>
      <stop offset="1" stop-color="#538B56"/>
    </linearGradient>
    <linearGradient id="crate" x1="0" y1="0" x2="1" y2="1">
      <stop offset="0" stop-color="#E7A55E"/>
      <stop offset="1" stop-color="#C77939"/>
    </linearGradient>
  </defs>

  <rect width="240" height="240" rx="54" fill="url(#bg)"/>
  <circle cx="58" cy="50" r="20" fill="#FFF8EE" opacity=".75"/>
  <circle cx="194" cy="60" r="28" fill="#FFE8CB" opacity=".7"/>
  <circle cx="186" cy="192" r="22" fill="#FFF4E7" opacity=".8"/>

  <rect x="36" y="40" width="168" height="160" rx="28" fill="url(#panel)"/>
  <rect x="36" y="40" width="168" height="160" rx="28" stroke="#E7CBA7" stroke-width="4"/>

  <rect x="54" y="94" width="132" height="10" rx="5" fill="#C68548"/>
  <rect x="54" y="150" width="132" height="10" rx="5" fill="#C68548"/>

  <rect x="64" y="66" width="30" height="28" rx="10" fill="url(#jar)"/>
  <rect x="68" y="58" width="22" height="11" rx="5.5" fill="#F7D6B6"/>
  <rect x="106" y="56" width="20" height="38" rx="10" fill="url(#bottle)"/>
  <rect x="111" y="46" width="10" height="15" rx="5" fill="#E7C79D"/>
  <path d="M152 65c0-7.732 6.268-14 14-14h4c7.732 0 14 6.268 14 14v29h-32V65Z" fill="#F1C764"/>
  <rect x="156" y="47" width="24" height="12" rx="6" fill="#FFF1C6"/>
  <path d="M80 136c0-9.941 8.059-18 18-18h12c9.941 0 18 8.059 18 18v14H80v-14Z" fill="#84B96E"/>
  <path d="M92 120c0-7.18 5.82-13 13-13s13 5.82 13 13v7H92v-7Z" fill="#95D27A"/>
  <rect x="138" y="118" width="38" height="32" rx="10" fill="#F1A55A"/>
  <circle cx="151" cy="134" r="7" fill="#E6664D"/>
  <circle cx="165" cy="134" r="7" fill="#74B35B"/>
  <circle cx="158" cy="143" r="7" fill="#F4D15A"/>

  <rect x="66" y="150" width="108" height="28" rx="10" fill="url(#crate)"/>
  <rect x="72" y="156" width="96" height="6" rx="3" fill="#F3C78E" opacity=".85"/>
  <rect x="78" y="166" width="84" height="4" rx="2" fill="#F3C78E" opacity=".7"/>
  <path d="M86 151c6-14 27-20 46-15 16 4 27 16 30 29H86v-14Z" fill="#80B46B"/>
  <path d="M92 144c4-10 18-18 31-18s26 8 32 19H92v-1Z" fill="#92CA7B"/>
  <circle cx="100" cy="158" r="8" fill="#E55F47"/>
  <circle cx="122" cy="156" r="9" fill="#F0C85D"/>
  <circle cx="144" cy="159" r="8" fill="#D96A48"/>

  <path d="M96 82h50" stroke="#FFFFFF" stroke-linecap="round" stroke-opacity=".55" stroke-width="5"/>
  <path d="M100 171h52" stroke="#FFFFFF" stroke-linecap="round" stroke-opacity=".45" stroke-width="4"/>
</svg>
